<mxfile host="app.diagrams.net" modified="2022-06-29T12:16:54.512Z" agent="5.0 (Macintosh; Intel Mac OS X 10_15_7) AppleWebKit/537.36 (KHTML, like Gecko) Chrome/103.0.0.0 Safari/537.36" etag="aPXGGl37H-ID_RnQ83lI" version="20.0.3" type="github">
  <diagram id="rGe3KuBBRu5CYdZj4_0n" name="Page-1">
    <mxGraphModel dx="1266" dy="539" grid="1" gridSize="10" guides="1" tooltips="1" connect="1" arrows="1" fold="1" page="1" pageScale="1" pageWidth="2336" pageHeight="1654" math="0" shadow="0">
      <root>
        <mxCell id="0" />
        <mxCell id="1" parent="0" />
        <mxCell id="QmvpYYEcJwL0dfFaCKJW-41" value="This solution simplify&lt;br&gt;management connection&lt;br&gt;between Amazon Vpc &lt;br&gt;and Network&amp;nbsp;over &lt;br&gt;private connection" style="text;html=1;align=left;verticalAlign=middle;resizable=0;points=[];autosize=1;strokeColor=none;fillColor=none;" vertex="1" parent="1">
          <mxGeometry x="688" y="526" width="150" height="90" as="geometry" />
        </mxCell>
        <mxCell id="QmvpYYEcJwL0dfFaCKJW-1" value="VPC &lt;br&gt;conectivity &lt;br&gt;options" style="sketch=0;points=[[0,0,0],[0.25,0,0],[0.5,0,0],[0.75,0,0],[1,0,0],[0,1,0],[0.25,1,0],[0.5,1,0],[0.75,1,0],[1,1,0],[0,0.25,0],[0,0.5,0],[0,0.75,0],[1,0.25,0],[1,0.5,0],[1,0.75,0]];outlineConnect=0;fontColor=#232F3E;gradientColor=#945DF2;gradientDirection=north;fillColor=#5A30B5;strokeColor=#ffffff;dashed=0;verticalLabelPosition=bottom;verticalAlign=top;align=center;html=1;fontSize=12;fontStyle=0;aspect=fixed;shape=mxgraph.aws4.resourceIcon;resIcon=mxgraph.aws4.vpc;" vertex="1" parent="1">
          <mxGeometry x="450" y="50" width="60" height="60" as="geometry" />
        </mxCell>
        <mxCell id="QmvpYYEcJwL0dfFaCKJW-4" value="" style="strokeWidth=1;html=1;shape=mxgraph.flowchart.annotation_2;align=left;labelPosition=right;pointerEvents=1;direction=south;" vertex="1" parent="1">
          <mxGeometry x="105" y="180" width="1375" height="30" as="geometry" />
        </mxCell>
        <mxCell id="QmvpYYEcJwL0dfFaCKJW-5" value="Network&amp;nbsp; to Amazon VPC" style="text;html=1;align=center;verticalAlign=middle;resizable=0;points=[];autosize=1;strokeColor=none;fillColor=none;" vertex="1" parent="1">
          <mxGeometry x="30" y="210" width="160" height="30" as="geometry" />
        </mxCell>
        <mxCell id="QmvpYYEcJwL0dfFaCKJW-8" value="" style="strokeWidth=1;html=1;shape=mxgraph.flowchart.annotation_1;align=left;pointerEvents=1;direction=south;" vertex="1" parent="1">
          <mxGeometry x="61" y="260" width="919" height="15" as="geometry" />
        </mxCell>
        <mxCell id="QmvpYYEcJwL0dfFaCKJW-9" value="" style="endArrow=none;html=1;rounded=0;" edge="1" parent="1">
          <mxGeometry width="50" height="50" relative="1" as="geometry">
            <mxPoint x="105.5" y="260" as="sourcePoint" />
            <mxPoint x="105.5" y="240" as="targetPoint" />
          </mxGeometry>
        </mxCell>
        <mxCell id="QmvpYYEcJwL0dfFaCKJW-10" value="AWS managed&lt;br&gt;VPN" style="text;html=1;align=center;verticalAlign=middle;resizable=0;points=[];autosize=1;strokeColor=default;fillColor=none;" vertex="1" parent="1">
          <mxGeometry x="16" y="276" width="100" height="40" as="geometry" />
        </mxCell>
        <mxCell id="QmvpYYEcJwL0dfFaCKJW-11" value="" style="endArrow=none;html=1;rounded=0;" edge="1" parent="1">
          <mxGeometry width="50" height="50" relative="1" as="geometry">
            <mxPoint x="226" y="274" as="sourcePoint" />
            <mxPoint x="226" y="260" as="targetPoint" />
          </mxGeometry>
        </mxCell>
        <mxCell id="QmvpYYEcJwL0dfFaCKJW-12" value="AWS DX&lt;br&gt;&lt;b&gt;+&lt;br&gt;&lt;/b&gt;Transit&lt;br&gt;Gateway&lt;br&gt;&lt;b&gt;+&lt;/b&gt;&lt;br&gt;VPN" style="text;html=1;align=center;verticalAlign=middle;resizable=0;points=[];autosize=1;strokeColor=default;fillColor=none;" vertex="1" parent="1">
          <mxGeometry x="189" y="274" width="70" height="100" as="geometry" />
        </mxCell>
        <mxCell id="QmvpYYEcJwL0dfFaCKJW-14" value="enables end-to-end&lt;br&gt;IPSec- encrypted" style="text;html=1;align=left;verticalAlign=middle;resizable=0;points=[];autosize=1;strokeColor=none;fillColor=none;fontSize=12;fontColor=#000033;" vertex="1" parent="1">
          <mxGeometry x="180" y="378" width="130" height="40" as="geometry" />
        </mxCell>
        <mxCell id="QmvpYYEcJwL0dfFaCKJW-15" value="" style="strokeWidth=1;html=1;shape=mxgraph.flowchart.annotation_1;align=left;pointerEvents=1;fontColor=#000033;fillColor=none;strokeColor=#3399FF;" vertex="1" parent="1">
          <mxGeometry x="177" y="383" width="12" height="30" as="geometry" />
        </mxCell>
        <mxCell id="QmvpYYEcJwL0dfFaCKJW-16" value="" style="strokeWidth=1;html=1;shape=mxgraph.flowchart.annotation_1;align=left;pointerEvents=1;fontColor=#000033;fillColor=none;direction=west;strokeColor=#3399FF;" vertex="1" parent="1">
          <mxGeometry x="277" y="383" width="10" height="30" as="geometry" />
        </mxCell>
        <mxCell id="QmvpYYEcJwL0dfFaCKJW-17" value="take advance of a VPN endpoint for &lt;br&gt;connecting to multiple VPCs in the &lt;br&gt;same region&amp;nbsp;at not aditional cost" style="text;html=1;align=left;verticalAlign=middle;resizable=0;points=[];autosize=1;strokeColor=none;fillColor=none;fontSize=12;fontColor=#000033;" vertex="1" parent="1">
          <mxGeometry x="247" y="526" width="210" height="60" as="geometry" />
        </mxCell>
        <mxCell id="QmvpYYEcJwL0dfFaCKJW-18" value="" style="strokeWidth=1;html=1;shape=mxgraph.flowchart.annotation_1;align=left;pointerEvents=1;fontColor=#000033;fillColor=none;strokeColor=#3399FF;" vertex="1" parent="1">
          <mxGeometry x="247" y="534" width="12" height="46" as="geometry" />
        </mxCell>
        <mxCell id="QmvpYYEcJwL0dfFaCKJW-19" value="" style="strokeWidth=1;html=1;shape=mxgraph.flowchart.annotation_1;align=left;pointerEvents=1;fontColor=#000033;fillColor=none;direction=west;strokeColor=#3399FF;" vertex="1" parent="1">
          <mxGeometry x="428" y="533" width="12" height="46" as="geometry" />
        </mxCell>
        <mxCell id="QmvpYYEcJwL0dfFaCKJW-20" value="" style="endArrow=none;html=1;rounded=0;" edge="1" parent="1">
          <mxGeometry width="50" height="50" relative="1" as="geometry">
            <mxPoint x="830" y="154" as="sourcePoint" />
            <mxPoint x="830" y="140" as="targetPoint" />
          </mxGeometry>
        </mxCell>
        <mxCell id="QmvpYYEcJwL0dfFaCKJW-21" value="" style="endArrow=none;html=1;rounded=0;" edge="1" parent="1">
          <mxGeometry width="50" height="50" relative="1" as="geometry">
            <mxPoint x="920" y="152" as="sourcePoint" />
            <mxPoint x="920" y="138" as="targetPoint" />
          </mxGeometry>
        </mxCell>
        <mxCell id="QmvpYYEcJwL0dfFaCKJW-22" value="" style="endArrow=none;html=1;rounded=0;" edge="1" parent="1">
          <mxGeometry width="50" height="50" relative="1" as="geometry">
            <mxPoint x="851" y="274" as="sourcePoint" />
            <mxPoint x="851" y="260" as="targetPoint" />
          </mxGeometry>
        </mxCell>
        <mxCell id="QmvpYYEcJwL0dfFaCKJW-23" value="AWS VPN&lt;br&gt;CloudHub" style="text;html=1;align=center;verticalAlign=middle;resizable=0;points=[];autosize=1;strokeColor=default;fillColor=none;" vertex="1" parent="1">
          <mxGeometry x="393" y="276" width="80" height="40" as="geometry" />
        </mxCell>
        <mxCell id="QmvpYYEcJwL0dfFaCKJW-24" value="Securely comunicate &lt;br&gt;one site to another . &lt;br&gt;Can be used withor &lt;br&gt;without VPC&amp;nbsp;&amp;nbsp;" style="text;html=1;align=left;verticalAlign=middle;resizable=0;points=[];autosize=1;strokeColor=none;fillColor=none;" vertex="1" parent="1">
          <mxGeometry x="379" y="324" width="130" height="70" as="geometry" />
        </mxCell>
        <mxCell id="QmvpYYEcJwL0dfFaCKJW-25" value="" style="strokeWidth=1;html=1;shape=mxgraph.flowchart.annotation_1;align=left;pointerEvents=1;fontColor=#000033;fillColor=none;strokeColor=#3399FF;" vertex="1" parent="1">
          <mxGeometry x="378" y="330" width="12" height="60" as="geometry" />
        </mxCell>
        <mxCell id="QmvpYYEcJwL0dfFaCKJW-26" value="" style="strokeWidth=1;html=1;shape=mxgraph.flowchart.annotation_1;align=left;pointerEvents=1;fontColor=#000033;fillColor=none;direction=west;strokeColor=#3399FF;" vertex="1" parent="1">
          <mxGeometry x="481" y="330" width="12" height="60" as="geometry" />
        </mxCell>
        <mxCell id="QmvpYYEcJwL0dfFaCKJW-28" value="" style="endArrow=none;html=1;rounded=0;" edge="1" parent="1">
          <mxGeometry width="50" height="50" relative="1" as="geometry">
            <mxPoint x="433" y="274" as="sourcePoint" />
            <mxPoint x="433" y="260" as="targetPoint" />
          </mxGeometry>
        </mxCell>
        <mxCell id="QmvpYYEcJwL0dfFaCKJW-29" value="AWS&amp;nbsp;&lt;br&gt;Direct Connect&lt;br&gt;(DX)" style="text;html=1;align=center;verticalAlign=middle;resizable=0;points=[];autosize=1;strokeColor=default;fillColor=none;" vertex="1" parent="1">
          <mxGeometry x="551" y="275" width="100" height="60" as="geometry" />
        </mxCell>
        <mxCell id="QmvpYYEcJwL0dfFaCKJW-30" value="Can reduce network costs and&lt;br&gt;increase bandwith throughput" style="text;html=1;align=left;verticalAlign=middle;resizable=0;points=[];autosize=1;strokeColor=none;fillColor=none;fontSize=12;fontColor=#000033;" vertex="1" parent="1">
          <mxGeometry x="532" y="337" width="190" height="40" as="geometry" />
        </mxCell>
        <mxCell id="QmvpYYEcJwL0dfFaCKJW-31" value="" style="strokeWidth=1;html=1;shape=mxgraph.flowchart.annotation_1;align=left;pointerEvents=1;fontColor=#000033;fillColor=none;strokeColor=#3399FF;" vertex="1" parent="1">
          <mxGeometry x="532" y="343" width="12" height="27" as="geometry" />
        </mxCell>
        <mxCell id="QmvpYYEcJwL0dfFaCKJW-32" value="" style="strokeWidth=1;html=1;shape=mxgraph.flowchart.annotation_1;align=left;pointerEvents=1;fontColor=#000033;fillColor=none;direction=west;strokeColor=#3399FF;" vertex="1" parent="1">
          <mxGeometry x="684" y="343" width="12" height="27" as="geometry" />
        </mxCell>
        <mxCell id="QmvpYYEcJwL0dfFaCKJW-33" value="" style="endArrow=none;html=1;rounded=0;" edge="1" parent="1">
          <mxGeometry width="50" height="50" relative="1" as="geometry">
            <mxPoint x="601" y="275" as="sourcePoint" />
            <mxPoint x="601" y="261" as="targetPoint" />
          </mxGeometry>
        </mxCell>
        <mxCell id="QmvpYYEcJwL0dfFaCKJW-34" value="AWS DX&lt;br&gt;&lt;b&gt;+&lt;br&gt;&lt;/b&gt;Transit&lt;br&gt;Gateway" style="text;html=1;align=center;verticalAlign=middle;resizable=0;points=[];autosize=1;strokeColor=default;fillColor=none;" vertex="1" parent="1">
          <mxGeometry x="297" y="451" width="70" height="70" as="geometry" />
        </mxCell>
        <mxCell id="QmvpYYEcJwL0dfFaCKJW-36" value="" style="endArrow=none;html=1;rounded=0;exitX=0.501;exitY=-0.03;exitDx=0;exitDy=0;exitPerimeter=0;" edge="1" parent="1" source="QmvpYYEcJwL0dfFaCKJW-34">
          <mxGeometry width="50" height="50" relative="1" as="geometry">
            <mxPoint x="332" y="438" as="sourcePoint" />
            <mxPoint x="332" y="260" as="targetPoint" />
          </mxGeometry>
        </mxCell>
        <mxCell id="QmvpYYEcJwL0dfFaCKJW-37" value="" style="endArrow=none;html=1;rounded=0;exitX=0.44;exitY=-0.067;exitDx=0;exitDy=0;exitPerimeter=0;" edge="1" parent="1" source="QmvpYYEcJwL0dfFaCKJW-38">
          <mxGeometry width="50" height="50" relative="1" as="geometry">
            <mxPoint x="742" y="424" as="sourcePoint" />
            <mxPoint x="742" y="260" as="targetPoint" />
          </mxGeometry>
        </mxCell>
        <mxCell id="QmvpYYEcJwL0dfFaCKJW-38" value="AWS DX&lt;br&gt;&lt;b&gt;+&lt;br&gt;&lt;/b&gt;Transit&lt;br&gt;Gateway" style="text;html=1;align=center;verticalAlign=middle;resizable=0;points=[];autosize=1;strokeColor=default;fillColor=none;" vertex="1" parent="1">
          <mxGeometry x="713" y="455" width="70" height="70" as="geometry" />
        </mxCell>
        <mxCell id="QmvpYYEcJwL0dfFaCKJW-39" value="" style="strokeWidth=1;html=1;shape=mxgraph.flowchart.annotation_1;align=left;pointerEvents=1;fontColor=#000033;fillColor=none;strokeColor=#3399FF;" vertex="1" parent="1">
          <mxGeometry x="687" y="533" width="12" height="74" as="geometry" />
        </mxCell>
        <mxCell id="QmvpYYEcJwL0dfFaCKJW-40" value="" style="strokeWidth=1;html=1;shape=mxgraph.flowchart.annotation_1;align=left;pointerEvents=1;fontColor=#000033;fillColor=none;direction=west;strokeColor=#3399FF;" vertex="1" parent="1">
          <mxGeometry x="813" y="533" width="10" height="74" as="geometry" />
        </mxCell>
        <mxCell id="QmvpYYEcJwL0dfFaCKJW-42" value="AWS DX&lt;br&gt;&lt;b&gt;+&lt;/b&gt;&lt;br&gt;VPN" style="text;html=1;align=center;verticalAlign=middle;resizable=0;points=[];autosize=1;strokeColor=default;fillColor=none;" vertex="1" parent="1">
          <mxGeometry x="818" y="273.5" width="70" height="60" as="geometry" />
        </mxCell>
        <mxCell id="QmvpYYEcJwL0dfFaCKJW-43" value="end-to-end IPSec &lt;br&gt;connection&amp;nbsp;with low &lt;br&gt;latency and increased&amp;nbsp;&lt;br&gt;bandwith" style="text;html=1;align=left;verticalAlign=middle;resizable=0;points=[];autosize=1;strokeColor=none;fillColor=none;" vertex="1" parent="1">
          <mxGeometry x="800" y="336.5" width="140" height="70" as="geometry" />
        </mxCell>
        <mxCell id="QmvpYYEcJwL0dfFaCKJW-46" value="" style="strokeWidth=1;html=1;shape=mxgraph.flowchart.annotation_1;align=left;pointerEvents=1;fontColor=#000033;fillColor=none;strokeColor=#3399FF;" vertex="1" parent="1">
          <mxGeometry x="800" y="342.5" width="12" height="56" as="geometry" />
        </mxCell>
        <mxCell id="QmvpYYEcJwL0dfFaCKJW-47" value="" style="strokeWidth=1;html=1;shape=mxgraph.flowchart.annotation_1;align=left;pointerEvents=1;fontColor=#000033;fillColor=none;direction=west;strokeColor=#3399FF;" vertex="1" parent="1">
          <mxGeometry x="909" y="342.5" width="12" height="56" as="geometry" />
        </mxCell>
        <mxCell id="QmvpYYEcJwL0dfFaCKJW-50" value="Software Site-to-Site VPN" style="text;html=1;align=center;verticalAlign=middle;resizable=0;points=[];autosize=1;strokeColor=default;fillColor=none;" vertex="1" parent="1">
          <mxGeometry x="890" y="451" width="160" height="30" as="geometry" />
        </mxCell>
        <mxCell id="QmvpYYEcJwL0dfFaCKJW-52" value="" style="endArrow=none;html=1;rounded=0;exitX=0.44;exitY=-0.067;exitDx=0;exitDy=0;exitPerimeter=0;" edge="1" parent="1">
          <mxGeometry width="50" height="50" relative="1" as="geometry">
            <mxPoint x="980" y="451" as="sourcePoint" />
            <mxPoint x="980" y="274" as="targetPoint" />
          </mxGeometry>
        </mxCell>
        <mxCell id="QmvpYYEcJwL0dfFaCKJW-53" value="recomended if you must manage &lt;br&gt;both&amp;nbsp;&lt;b&gt;&lt;font color=&quot;#ff3333&quot;&gt;ends of the VPN connection&lt;/font&gt;&lt;/b&gt;&amp;nbsp;" style="text;html=1;align=left;verticalAlign=middle;resizable=0;points=[];autosize=1;strokeColor=none;fillColor=none;" vertex="1" parent="1">
          <mxGeometry x="881" y="486" width="210" height="40" as="geometry" />
        </mxCell>
        <mxCell id="QmvpYYEcJwL0dfFaCKJW-54" value="" style="strokeWidth=1;html=1;shape=mxgraph.flowchart.annotation_1;align=left;pointerEvents=1;fontColor=#000033;fillColor=none;strokeColor=#3399FF;" vertex="1" parent="1">
          <mxGeometry x="881" y="492" width="12" height="27" as="geometry" />
        </mxCell>
        <mxCell id="QmvpYYEcJwL0dfFaCKJW-55" value="" style="strokeWidth=1;html=1;shape=mxgraph.flowchart.annotation_1;align=left;pointerEvents=1;fontColor=#000033;fillColor=none;direction=west;strokeColor=#3399FF;" vertex="1" parent="1">
          <mxGeometry x="1058" y="492" width="12" height="27" as="geometry" />
        </mxCell>
        <mxCell id="QmvpYYEcJwL0dfFaCKJW-56" value="&lt;b&gt;for leveraging gateway devices &lt;br&gt;not supported by amazon&lt;/b&gt;" style="text;html=1;align=center;verticalAlign=middle;resizable=0;points=[];autosize=1;strokeColor=none;fillColor=none;fontColor=#000033;" vertex="1" parent="1">
          <mxGeometry x="875" y="521" width="200" height="40" as="geometry" />
        </mxCell>
        <mxCell id="QmvpYYEcJwL0dfFaCKJW-57" value="Amazon VPC&amp;nbsp; to Amazon VPC" style="text;html=1;align=center;verticalAlign=middle;resizable=0;points=[];autosize=1;strokeColor=none;fillColor=none;fontColor=#000033;" vertex="1" parent="1">
          <mxGeometry x="1377" y="210" width="190" height="30" as="geometry" />
        </mxCell>
        <mxCell id="QmvpYYEcJwL0dfFaCKJW-58" value="" style="strokeWidth=1;html=1;shape=mxgraph.flowchart.annotation_1;align=left;pointerEvents=1;direction=south;" vertex="1" parent="1">
          <mxGeometry x="1232" y="261" width="919" height="15" as="geometry" />
        </mxCell>
        <mxCell id="QmvpYYEcJwL0dfFaCKJW-59" value="" style="endArrow=none;html=1;rounded=0;" edge="1" parent="1">
          <mxGeometry width="50" height="50" relative="1" as="geometry">
            <mxPoint x="1420.5" y="261" as="sourcePoint" />
            <mxPoint x="1420.5" y="241" as="targetPoint" />
          </mxGeometry>
        </mxCell>
        <mxCell id="QmvpYYEcJwL0dfFaCKJW-60" value="VPC peeriing" style="text;html=1;align=center;verticalAlign=middle;resizable=0;points=[];autosize=1;strokeColor=default;fillColor=none;fontColor=#000033;" vertex="1" parent="1">
          <mxGeometry x="1185" y="276" width="90" height="30" as="geometry" />
        </mxCell>
        <mxCell id="QmvpYYEcJwL0dfFaCKJW-61" value="Transit &lt;br&gt;Gateway" style="text;html=1;align=center;verticalAlign=middle;resizable=0;points=[];autosize=1;strokeColor=none;fillColor=none;fontColor=#000033;" vertex="1" parent="1">
          <mxGeometry x="1335" y="270" width="70" height="40" as="geometry" />
        </mxCell>
        <mxCell id="QmvpYYEcJwL0dfFaCKJW-62" value="Software Site-to-Site VPN" style="text;html=1;align=center;verticalAlign=middle;resizable=0;points=[];autosize=1;strokeColor=default;fillColor=none;" vertex="1" parent="1">
          <mxGeometry x="1470" y="300" width="160" height="30" as="geometry" />
        </mxCell>
        <mxCell id="QmvpYYEcJwL0dfFaCKJW-63" value="Connection between&amp;nbsp;2 VPCs &lt;br&gt;or more even inter regions&amp;nbsp;&lt;br&gt;(reducing DDos attack)" style="text;html=1;align=center;verticalAlign=middle;resizable=0;points=[];autosize=1;strokeColor=none;fillColor=none;fontColor=#000033;" vertex="1" parent="1">
          <mxGeometry x="1142" y="310" width="180" height="60" as="geometry" />
        </mxCell>
      </root>
    </mxGraphModel>
  </diagram>
</mxfile>
